<svg xmlns="http://www.w3.org/2000/svg" xmlns:xlink="http://www.w3.org/1999/xlink" width="88" zoomAndPan="magnify" viewBox="0 0 66 38.249999" height="51" preserveAspectRatio="xMidYMid meet" version="1.0"><defs><g/></defs><g fill="#a0c4ff" fill-opacity="1"><g transform="translate(1.486281, 20.381437)"><g><path d="M 6.042969 -11.351562 L 6.042969 -7 C 5.523438 -7.761719 4.597656 -8.28125 3.589844 -8.28125 C 1.6875 -8.28125 0.292969 -6.464844 0.292969 -4.058594 C 0.292969 -1.65625 1.707031 0.164062 3.621094 0.164062 C 4.597656 0.164062 5.488281 -0.324219 6.042969 -1.070312 L 6.042969 0 L 9.613281 0 L 9.613281 -11.855469 Z M 5.101562 -0.8125 C 4.386719 -0.8125 3.929688 -2.109375 3.929688 -4.058594 C 3.929688 -5.992188 4.367188 -7.292969 5.050781 -7.292969 C 5.441406 -7.292969 5.8125 -6.902344 6.042969 -6.300781 L 6.042969 -1.707031 C 5.796875 -1.136719 5.457031 -0.8125 5.101562 -0.8125 Z M 5.101562 -0.8125 "/></g></g></g><g fill="#a0c4ff" fill-opacity="1"><g transform="translate(11.766368, 20.381437)"><g><path d="M 4.613281 -8.28125 C 2.453125 -8.28125 0.84375 -7.4375 0.84375 -6.332031 C 0.84375 -5.503906 1.496094 -4.871094 2.371094 -4.871094 C 3.183594 -4.871094 3.816406 -5.503906 3.816406 -6.332031 C 3.816406 -6.96875 3.441406 -7.503906 2.890625 -7.699219 C 3.132812 -7.78125 3.394531 -7.828125 3.671875 -7.828125 C 4.824219 -7.828125 5.472656 -7.195312 5.472656 -6.058594 L 5.472656 -3.980469 C 5.066406 -4.269531 4.253906 -4.484375 3.425781 -4.484375 C 1.558594 -4.484375 0.128906 -3.476562 0.128906 -2.128906 C 0.128906 -0.828125 1.300781 0.164062 2.859375 0.164062 C 3.945312 0.164062 4.953125 -0.324219 5.472656 -1.039062 L 5.472656 0 L 9.046875 0 L 9.046875 -5.117188 C 9.046875 -6.917969 7.179688 -8.28125 4.613281 -8.28125 Z M 4.660156 -0.925781 C 4.125 -0.925781 3.769531 -1.511719 3.769531 -2.355469 C 3.769531 -3.3125 4.222656 -3.882812 4.855469 -3.882812 C 5.101562 -3.882812 5.328125 -3.800781 5.472656 -3.636719 L 5.472656 -1.476562 C 5.277344 -1.121094 5.003906 -0.925781 4.660156 -0.925781 Z M 4.660156 -0.925781 "/></g></g></g><g fill="#a0c4ff" fill-opacity="1"><g transform="translate(21.413083, 20.381437)"><g><path d="M 6.835938 -8.28125 C 5.75 -8.28125 4.792969 -7.761719 4.238281 -6.949219 L 4.238281 -8.203125 L 0.664062 -7.699219 L 0.664062 0 L 4.238281 0 L 4.238281 -6.300781 C 4.464844 -6.886719 4.886719 -7.277344 5.328125 -7.277344 C 5.652344 -7.277344 5.894531 -6.933594 5.894531 -6.480469 L 5.894531 0 L 9.46875 0 L 9.46875 -5.667969 C 9.46875 -7.164062 8.332031 -8.28125 6.835938 -8.28125 Z M 6.835938 -8.28125 "/></g></g></g><g fill="#a0c4ff" fill-opacity="1"><g transform="translate(31.482046, 20.381437)"><g><path d="M 2.582031 -8.558594 C 3.589844 -8.558594 4.335938 -9.339844 4.335938 -10.378906 C 4.335938 -11.402344 3.589844 -12.164062 2.582031 -12.164062 C 1.496094 -12.164062 0.699219 -11.402344 0.699219 -10.378906 C 0.699219 -9.339844 1.496094 -8.558594 2.582031 -8.558594 Z M 0.714844 0 L 4.289062 0 L 4.289062 -8.203125 L 0.714844 -7.699219 Z M 0.714844 0 "/></g></g></g><g fill="#a0c4ff" fill-opacity="1"><g transform="translate(36.516527, 20.381437)"><g><path d="M 7.472656 -3.605469 C 6.578125 -3.605469 5.929688 -2.957031 5.929688 -2.128906 C 5.929688 -1.332031 6.511719 -0.714844 7.339844 -0.664062 C 7.03125 -0.535156 6.675781 -0.453125 6.285156 -0.453125 C 4.773438 -0.453125 3.960938 -1.527344 3.929688 -4.335938 L 8.949219 -4.335938 C 8.949219 -6.59375 7.164062 -8.28125 4.757812 -8.28125 C 2.273438 -8.28125 0.292969 -6.496094 0.292969 -4.09375 C 0.292969 -1.65625 2.304688 0.164062 5.148438 0.164062 C 7.226562 0.164062 8.898438 -0.828125 8.898438 -2.128906 C 8.898438 -2.957031 8.28125 -3.605469 7.472656 -3.605469 Z M 4.824219 -7.957031 C 5.34375 -7.957031 5.652344 -6.804688 5.667969 -4.660156 L 3.929688 -4.660156 C 3.945312 -6.511719 4.238281 -7.957031 4.824219 -7.957031 Z M 4.824219 -7.957031 "/></g></g></g><g fill="#a0c4ff" fill-opacity="1"><g transform="translate(45.757234, 20.381437)"><g><path d="M 0.664062 0 L 4.238281 0 L 4.238281 -11.855469 L 0.664062 -11.351562 Z M 0.664062 0 "/></g></g></g><g fill="#a0c4ff" fill-opacity="1"><g transform="translate(50.661797, 20.381437)"><g><path d="M 4.613281 -8.28125 C 2.453125 -8.28125 0.84375 -7.4375 0.84375 -6.332031 C 0.84375 -5.503906 1.496094 -4.871094 2.371094 -4.871094 C 3.183594 -4.871094 3.816406 -5.503906 3.816406 -6.332031 C 3.816406 -6.96875 3.441406 -7.503906 2.890625 -7.699219 C 3.132812 -7.78125 3.394531 -7.828125 3.671875 -7.828125 C 4.824219 -7.828125 5.472656 -7.195312 5.472656 -6.058594 L 5.472656 -3.980469 C 5.066406 -4.269531 4.253906 -4.484375 3.425781 -4.484375 C 1.558594 -4.484375 0.128906 -3.476562 0.128906 -2.128906 C 0.128906 -0.828125 1.300781 0.164062 2.859375 0.164062 C 3.945312 0.164062 4.953125 -0.324219 5.472656 -1.039062 L 5.472656 0 L 9.046875 0 L 9.046875 -5.117188 C 9.046875 -6.917969 7.179688 -8.28125 4.613281 -8.28125 Z M 4.660156 -0.925781 C 4.125 -0.925781 3.769531 -1.511719 3.769531 -2.355469 C 3.769531 -3.3125 4.222656 -3.882812 4.855469 -3.882812 C 5.101562 -3.882812 5.328125 -3.800781 5.472656 -3.636719 L 5.472656 -1.476562 C 5.277344 -1.121094 5.003906 -0.925781 4.660156 -0.925781 Z M 4.660156 -0.925781 "/></g></g></g><g fill="#a0c4ff" fill-opacity="1"><g transform="translate(60.308514, 20.381437)"><g><path d="M 2.128906 0.0820312 C 3.25 0.0820312 4.078125 -0.746094 4.078125 -1.867188 C 4.078125 -2.988281 3.25 -3.867188 2.128906 -3.867188 C 0.992188 -3.867188 0.128906 -2.988281 0.128906 -1.867188 C 0.128906 -0.746094 0.992188 0.0820312 2.128906 0.0820312 Z M 2.128906 0.0820312 "/></g></g></g><g fill="#ffadad" fill-opacity="1"><g transform="translate(12.803524, 25.88447)"><g><path d="M 0.328125 0.148438 L 0.324219 0.15625 L 1.949219 0.933594 C 1.96875 0.945312 1.992188 0.949219 2.023438 0.9375 C 2.042969 0.929688 2.066406 0.914062 2.078125 0.890625 L 2.273438 0.476562 C 2.300781 0.425781 2.28125 0.378906 2.230469 0.355469 C 2.214844 0.347656 2.203125 0.347656 2.199219 0.347656 L 2.011719 0.328125 C 2 0.328125 1.988281 0.320312 1.976562 0.316406 L 1.171875 -0.0703125 C 1.140625 -0.0859375 1.121094 -0.101562 1.117188 -0.128906 C 1.109375 -0.152344 1.113281 -0.171875 1.125 -0.199219 L 2.296875 -2.640625 C 2.300781 -2.652344 2.304688 -2.65625 2.3125 -2.664062 L 2.445312 -2.789062 C 2.46875 -2.8125 2.476562 -2.839844 2.464844 -2.875 C 2.457031 -2.910156 2.445312 -2.9375 2.417969 -2.949219 L 1.945312 -3.175781 C 1.914062 -3.191406 1.890625 -3.191406 1.867188 -3.183594 C 1.84375 -3.167969 1.828125 -3.152344 1.816406 -3.128906 C 1.808594 -3.113281 1.804688 -3.105469 1.808594 -3.097656 L 1.789062 -2.914062 C 1.785156 -2.90625 1.78125 -2.898438 1.78125 -2.898438 C 1.78125 -2.894531 1.78125 -2.886719 1.78125 -2.886719 L 0.464844 -0.144531 C 0.464844 -0.136719 0.457031 -0.136719 0.457031 -0.136719 C 0.453125 -0.128906 0.453125 -0.125 0.449219 -0.121094 L 0.320312 0.0078125 C 0.292969 0.0351562 0.289062 0.0546875 0.289062 0.0820312 C 0.289062 0.105469 0.296875 0.128906 0.328125 0.148438 Z M 0.328125 0.148438 "/></g></g></g><g fill="#ffadad" fill-opacity="1"><g transform="translate(15.081733, 26.961383)"><g><path d="M 0.351562 0.148438 L 0.832031 0.355469 C 0.855469 0.363281 0.878906 0.367188 0.90625 0.355469 C 0.929688 0.347656 0.949219 0.332031 0.964844 0.300781 C 0.96875 0.289062 0.964844 0.28125 0.96875 0.269531 L 0.976562 0.0898438 C 0.976562 0.0820312 0.980469 0.0703125 0.984375 0.0585938 L 2.179688 -2.738281 C 2.183594 -2.75 2.183594 -2.753906 2.195312 -2.761719 L 2.320312 -2.894531 C 2.339844 -2.917969 2.347656 -2.945312 2.335938 -2.980469 C 2.328125 -3.015625 2.3125 -3.039062 2.289062 -3.050781 L 1.804688 -3.257812 C 1.773438 -3.269531 1.75 -3.269531 1.726562 -3.261719 C 1.699219 -3.246094 1.6875 -3.226562 1.679688 -3.207031 C 1.671875 -3.191406 1.667969 -3.179688 1.667969 -3.171875 L 1.660156 -2.992188 C 1.65625 -2.980469 1.652344 -2.976562 1.652344 -2.976562 C 1.652344 -2.96875 1.652344 -2.960938 1.652344 -2.960938 L 0.460938 -0.164062 C 0.457031 -0.15625 0.449219 -0.15625 0.449219 -0.15625 C 0.449219 -0.148438 0.445312 -0.144531 0.445312 -0.140625 L 0.320312 -0.0078125 C 0.292969 0.0195312 0.285156 0.046875 0.292969 0.0820312 C 0.296875 0.113281 0.320312 0.136719 0.351562 0.148438 Z M 0.351562 0.148438 "/></g></g></g><g fill="#ffadad" fill-opacity="1"><g transform="translate(16.350449, 27.516571)"><g><path d="M 0.359375 0.132812 L 0.847656 0.316406 C 0.871094 0.324219 0.894531 0.328125 0.921875 0.3125 C 0.945312 0.304688 0.964844 0.285156 0.976562 0.253906 C 0.980469 0.242188 0.976562 0.238281 0.980469 0.226562 L 0.980469 0.0429688 C 0.976562 0.0351562 0.980469 0.0273438 0.984375 0.015625 L 1.46875 -1.277344 C 1.476562 -1.296875 1.488281 -1.3125 1.507812 -1.324219 C 1.53125 -1.332031 1.558594 -1.335938 1.578125 -1.328125 L 2.234375 -1.082031 C 2.246094 -1.078125 2.253906 -1.070312 2.265625 -1.066406 L 2.402344 -0.945312 C 2.425781 -0.925781 2.453125 -0.914062 2.488281 -0.925781 C 2.515625 -0.933594 2.539062 -0.957031 2.554688 -0.988281 L 2.734375 -1.480469 C 2.757812 -1.539062 2.738281 -1.582031 2.683594 -1.601562 C 2.667969 -1.609375 2.65625 -1.605469 2.652344 -1.609375 L 2.46875 -1.609375 C 2.457031 -1.609375 2.445312 -1.613281 2.433594 -1.617188 L 1.777344 -1.863281 C 1.757812 -1.871094 1.738281 -1.882812 1.726562 -1.90625 C 1.714844 -1.925781 1.71875 -1.949219 1.726562 -1.972656 L 1.933594 -2.519531 C 1.941406 -2.542969 1.953125 -2.5625 1.976562 -2.578125 C 2 -2.585938 2.023438 -2.589844 2.058594 -2.578125 L 3.054688 -2.207031 C 3.066406 -2.203125 3.074219 -2.191406 3.085938 -2.1875 L 3.230469 -2.066406 C 3.253906 -2.046875 3.277344 -2.039062 3.3125 -2.046875 C 3.339844 -2.054688 3.363281 -2.070312 3.375 -2.105469 L 3.535156 -2.53125 C 3.542969 -2.550781 3.542969 -2.578125 3.535156 -2.605469 C 3.519531 -2.628906 3.5 -2.648438 3.480469 -2.65625 L 1.632812 -3.34375 L 1.628906 -3.339844 C 1.578125 -3.347656 1.542969 -3.324219 1.527344 -3.28125 C 1.523438 -3.265625 1.519531 -3.253906 1.523438 -3.246094 L 1.519531 -3.0625 C 1.515625 -3.054688 1.515625 -3.046875 1.515625 -3.046875 C 1.511719 -3.042969 1.515625 -3.035156 1.515625 -3.035156 L 0.453125 -0.183594 C 0.449219 -0.179688 0.441406 -0.175781 0.441406 -0.175781 C 0.441406 -0.171875 0.4375 -0.164062 0.4375 -0.160156 L 0.316406 -0.0195312 C 0.296875 0.0078125 0.285156 0.0351562 0.296875 0.0664062 C 0.304688 0.101562 0.324219 0.121094 0.359375 0.132812 Z M 0.359375 0.132812 "/></g></g></g><g fill="#ffadad" fill-opacity="1"><g transform="translate(18.909977, 28.469296)"><g><path d="M 1.515625 -0.363281 L 2.460938 -0.078125 C 2.480469 -0.0703125 2.503906 -0.0703125 2.53125 -0.0820312 C 2.554688 -0.09375 2.570312 -0.113281 2.578125 -0.140625 L 2.710938 -0.578125 C 2.730469 -0.632812 2.707031 -0.675781 2.652344 -0.691406 C 2.636719 -0.695312 2.621094 -0.695312 2.617188 -0.695312 L 2.429688 -0.6875 C 2.417969 -0.683594 2.40625 -0.6875 2.394531 -0.691406 L 1.375 -1 C 1.34375 -1.011719 1.324219 -1.023438 1.3125 -1.050781 C 1.300781 -1.070312 1.300781 -1.09375 1.3125 -1.121094 L 1.5 -1.75 C 1.507812 -1.769531 1.519531 -1.785156 1.539062 -1.796875 C 1.558594 -1.808594 1.585938 -1.8125 1.609375 -1.804688 L 2.277344 -1.601562 C 2.289062 -1.597656 2.296875 -1.589844 2.308594 -1.585938 L 2.453125 -1.476562 C 2.480469 -1.457031 2.507812 -1.449219 2.539062 -1.464844 C 2.566406 -1.472656 2.589844 -1.496094 2.601562 -1.527344 L 2.753906 -2.03125 C 2.773438 -2.089844 2.75 -2.132812 2.695312 -2.148438 C 2.679688 -2.15625 2.664062 -2.152344 2.660156 -2.152344 L 2.476562 -2.144531 C 2.464844 -2.140625 2.453125 -2.144531 2.445312 -2.148438 L 1.773438 -2.351562 C 1.75 -2.359375 1.730469 -2.371094 1.71875 -2.390625 C 1.707031 -2.414062 1.710938 -2.4375 1.714844 -2.457031 L 1.769531 -2.636719 C 1.777344 -2.660156 1.789062 -2.679688 1.8125 -2.695312 C 1.832031 -2.707031 1.859375 -2.710938 1.890625 -2.703125 L 2.910156 -2.394531 C 2.921875 -2.390625 2.929688 -2.382812 2.941406 -2.378906 L 3.09375 -2.265625 C 3.117188 -2.246094 3.144531 -2.238281 3.179688 -2.253906 C 3.207031 -2.261719 3.226562 -2.28125 3.238281 -2.3125 L 3.371094 -2.75 C 3.375 -2.769531 3.371094 -2.796875 3.363281 -2.820312 C 3.347656 -2.84375 3.328125 -2.863281 3.304688 -2.871094 L 1.417969 -3.441406 L 1.417969 -3.4375 C 1.363281 -3.441406 1.332031 -3.414062 1.320312 -3.371094 C 1.3125 -3.355469 1.3125 -3.34375 1.316406 -3.335938 L 1.324219 -3.152344 C 1.320312 -3.144531 1.320312 -3.136719 1.320312 -3.136719 C 1.320312 -3.132812 1.324219 -3.125 1.324219 -3.125 L 0.667969 -0.964844 C 0.667969 -0.960938 0.660156 -0.957031 0.660156 -0.957031 C 0.65625 -0.949219 0.65625 -0.945312 0.652344 -0.9375 L 0.542969 -0.792969 C 0.523438 -0.765625 0.523438 -0.742188 0.527344 -0.714844 C 0.53125 -0.691406 0.542969 -0.667969 0.574219 -0.652344 L 0.652344 -0.625 C 0.707031 -0.605469 0.777344 -0.585938 0.867188 -0.558594 L 1.171875 -0.464844 Z M 0.367188 0.109375 L 2.230469 0.675781 C 2.253906 0.683594 2.277344 0.683594 2.304688 0.667969 C 2.324219 0.65625 2.34375 0.640625 2.351562 0.613281 L 2.425781 0.371094 C 2.429688 0.351562 2.425781 0.324219 2.417969 0.296875 C 2.398438 0.273438 2.382812 0.257812 2.359375 0.25 L 0.496094 -0.316406 C 0.46875 -0.324219 0.441406 -0.320312 0.421875 -0.308594 C 0.390625 -0.292969 0.378906 -0.273438 0.375 -0.25 L 0.300781 -0.0117188 C 0.292969 0.015625 0.292969 0.0390625 0.308594 0.0625 C 0.316406 0.0898438 0.339844 0.101562 0.367188 0.109375 Z M 0.367188 0.109375 "/></g></g></g><g fill="#ffadad" fill-opacity="1"><g transform="translate(21.630841, 29.285219)"><g><path d="M 0.351562 0.078125 L 0.347656 0.0820312 L 2.101562 0.5 C 2.125 0.503906 2.148438 0.503906 2.175781 0.488281 C 2.195312 0.476562 2.210938 0.457031 2.21875 0.429688 L 2.324219 -0.015625 C 2.335938 -0.0703125 2.3125 -0.113281 2.257812 -0.125 C 2.238281 -0.128906 2.226562 -0.125 2.222656 -0.128906 L 2.035156 -0.109375 C 2.023438 -0.105469 2.011719 -0.109375 2 -0.109375 L 1.128906 -0.316406 C 1.097656 -0.324219 1.074219 -0.335938 1.066406 -0.363281 C 1.050781 -0.382812 1.050781 -0.40625 1.058594 -0.433594 L 1.683594 -3.066406 C 1.6875 -3.078125 1.6875 -3.085938 1.695312 -3.09375 L 1.796875 -3.246094 C 1.816406 -3.269531 1.816406 -3.300781 1.800781 -3.332031 C 1.785156 -3.367188 1.765625 -3.386719 1.738281 -3.394531 L 1.230469 -3.515625 C 1.195312 -3.523438 1.171875 -3.519531 1.148438 -3.503906 C 1.128906 -3.488281 1.117188 -3.464844 1.113281 -3.445312 C 1.109375 -3.425781 1.105469 -3.417969 1.109375 -3.410156 L 1.132812 -3.230469 C 1.128906 -3.21875 1.128906 -3.210938 1.128906 -3.210938 C 1.125 -3.207031 1.128906 -3.199219 1.128906 -3.199219 L 0.425781 -0.238281 C 0.425781 -0.234375 0.417969 -0.230469 0.417969 -0.230469 C 0.417969 -0.222656 0.414062 -0.21875 0.414062 -0.210938 L 0.3125 -0.0585938 C 0.292969 -0.03125 0.292969 -0.0078125 0.300781 0.0195312 C 0.304688 0.0429688 0.320312 0.0625 0.351562 0.078125 Z M 0.351562 0.078125 "/></g></g></g><g fill="#ffadad" fill-opacity="1"><g transform="translate(24.118264, 29.877967)"><g><path d="M 1.492188 -0.539062 C 1.65625 -0.511719 1.820312 -0.515625 1.980469 -0.570312 C 2.136719 -0.617188 2.277344 -0.699219 2.410156 -0.8125 C 2.539062 -0.925781 2.648438 -1.0625 2.742188 -1.226562 C 2.832031 -1.386719 2.898438 -1.566406 2.933594 -1.769531 C 2.96875 -1.960938 2.964844 -2.152344 2.933594 -2.34375 C 2.902344 -2.527344 2.84375 -2.691406 2.761719 -2.839844 C 2.675781 -2.988281 2.570312 -3.109375 2.4375 -3.214844 C 2.304688 -3.320312 2.160156 -3.386719 1.992188 -3.414062 C 1.824219 -3.441406 1.667969 -3.429688 1.507812 -3.382812 C 1.347656 -3.328125 1.199219 -3.25 1.070312 -3.140625 C 0.941406 -3.023438 0.832031 -2.886719 0.738281 -2.722656 C 0.648438 -2.558594 0.585938 -2.378906 0.554688 -2.183594 C 0.519531 -1.980469 0.511719 -1.789062 0.546875 -1.605469 C 0.578125 -1.421875 0.632812 -1.253906 0.71875 -1.105469 C 0.800781 -0.953125 0.90625 -0.832031 1.042969 -0.734375 C 1.171875 -0.628906 1.324219 -0.566406 1.492188 -0.539062 Z M 1.589844 -1.101562 C 1.5 -1.117188 1.425781 -1.152344 1.363281 -1.210938 C 1.289062 -1.269531 1.234375 -1.347656 1.191406 -1.4375 C 1.148438 -1.523438 1.121094 -1.621094 1.105469 -1.734375 C 1.089844 -1.847656 1.09375 -1.960938 1.113281 -2.085938 C 1.136719 -2.203125 1.171875 -2.3125 1.222656 -2.414062 C 1.277344 -2.515625 1.335938 -2.601562 1.40625 -2.671875 C 1.476562 -2.738281 1.554688 -2.789062 1.640625 -2.820312 C 1.722656 -2.855469 1.804688 -2.867188 1.894531 -2.851562 C 1.972656 -2.839844 2.046875 -2.796875 2.117188 -2.738281 C 2.191406 -2.679688 2.246094 -2.605469 2.289062 -2.519531 C 2.332031 -2.429688 2.363281 -2.324219 2.378906 -2.214844 C 2.394531 -2.101562 2.394531 -1.984375 2.371094 -1.867188 C 2.351562 -1.742188 2.316406 -1.632812 2.261719 -1.535156 C 2.210938 -1.433594 2.148438 -1.351562 2.078125 -1.28125 C 2.011719 -1.210938 1.929688 -1.15625 1.84375 -1.125 C 1.757812 -1.09375 1.675781 -1.085938 1.589844 -1.101562 Z M 0.265625 0.046875 L 2.453125 0.425781 C 2.476562 0.429688 2.5 0.429688 2.527344 0.410156 C 2.546875 0.394531 2.5625 0.375 2.566406 0.347656 L 2.609375 0.101562 C 2.613281 0.078125 2.605469 0.0546875 2.59375 0.0273438 C 2.574219 0.0078125 2.550781 -0.0078125 2.53125 -0.0117188 L 0.339844 -0.390625 C 0.3125 -0.398438 0.289062 -0.390625 0.269531 -0.375 C 0.242188 -0.355469 0.230469 -0.335938 0.226562 -0.3125 L 0.183594 -0.0664062 C 0.179688 -0.0390625 0.183594 -0.015625 0.203125 0.0078125 C 0.214844 0.03125 0.234375 0.0390625 0.265625 0.046875 Z M 0.265625 0.046875 "/></g></g></g><g fill="#ffadad" fill-opacity="1"><g transform="translate(26.976373, 30.372781)"><g><path d="M 0.378906 0.0390625 L 0.902344 0.09375 C 0.925781 0.0976562 0.949219 0.09375 0.972656 0.0742188 C 0.992188 0.0585938 1.003906 0.0351562 1.007812 0.00390625 C 1.007812 -0.0078125 1.003906 -0.015625 1.003906 -0.0273438 L 0.960938 -0.203125 C 0.957031 -0.210938 0.957031 -0.21875 0.957031 -0.230469 L 1.15625 -2.109375 C 1.15625 -2.132812 1.171875 -2.148438 1.199219 -2.144531 C 1.210938 -2.144531 1.226562 -2.128906 1.238281 -2.117188 L 1.980469 0.0234375 L 1.957031 0.0742188 C 1.941406 0.105469 1.941406 0.132812 1.960938 0.164062 C 1.972656 0.195312 2 0.210938 2.035156 0.214844 L 2.550781 0.265625 C 2.578125 0.269531 2.601562 0.265625 2.621094 0.246094 C 2.640625 0.230469 2.65625 0.210938 2.65625 0.179688 C 2.660156 0.167969 2.652344 0.15625 2.65625 0.148438 L 2.609375 -0.03125 C 2.613281 -0.0351562 2.605469 -0.0429688 2.605469 -0.046875 C 2.605469 -0.046875 2.609375 -0.0546875 2.609375 -0.0585938 L 3.058594 -4.351562 C 3.058594 -4.351562 3.058594 -4.355469 3.058594 -4.363281 C 3.058594 -4.363281 3.066406 -4.367188 3.066406 -4.378906 L 3.148438 -4.542969 C 3.160156 -4.570312 3.160156 -4.597656 3.144531 -4.628906 C 3.125 -4.660156 3.105469 -4.679688 3.070312 -4.679688 L 2.554688 -4.734375 C 2.519531 -4.738281 2.496094 -4.730469 2.476562 -4.714844 C 2.457031 -4.695312 2.449219 -4.671875 2.449219 -4.648438 C 2.445312 -4.632812 2.445312 -4.621094 2.449219 -4.613281 L 2.488281 -4.4375 C 2.488281 -4.425781 2.492188 -4.421875 2.492188 -4.410156 L 2.160156 -1.269531 C 2.160156 -1.242188 2.140625 -1.230469 2.117188 -1.234375 C 2.101562 -1.234375 2.089844 -1.242188 2.082031 -1.261719 C 1.984375 -1.535156 1.910156 -1.753906 1.851562 -1.921875 C 1.789062 -2.085938 1.746094 -2.222656 1.714844 -2.320312 C 1.679688 -2.414062 1.660156 -2.480469 1.644531 -2.519531 L 1.609375 -2.609375 C 1.597656 -2.628906 1.59375 -2.648438 1.589844 -2.664062 C 1.582031 -2.683594 1.574219 -2.71875 1.554688 -2.765625 C 1.539062 -2.8125 1.511719 -2.882812 1.476562 -2.980469 C 1.441406 -3.074219 1.398438 -3.21875 1.335938 -3.402344 L 1.363281 -3.449219 C 1.378906 -3.476562 1.375 -3.507812 1.355469 -3.535156 C 1.335938 -3.566406 1.316406 -3.585938 1.289062 -3.589844 L 0.765625 -3.644531 C 0.730469 -3.648438 0.707031 -3.640625 0.691406 -3.625 C 0.671875 -3.601562 0.660156 -3.582031 0.660156 -3.558594 C 0.65625 -3.542969 0.65625 -3.53125 0.660156 -3.523438 L 0.707031 -3.347656 C 0.707031 -3.335938 0.703125 -3.332031 0.703125 -3.332031 C 0.703125 -3.324219 0.710938 -3.320312 0.710938 -3.320312 L 0.390625 -0.292969 C 0.390625 -0.285156 0.382812 -0.28125 0.382812 -0.28125 C 0.382812 -0.273438 0.382812 -0.269531 0.382812 -0.261719 L 0.304688 -0.101562 C 0.289062 -0.0664062 0.285156 -0.0390625 0.304688 -0.0078125 C 0.320312 0.0234375 0.347656 0.0351562 0.378906 0.0390625 Z M 0.378906 0.0390625 "/></g></g></g><g fill="#ffadad" fill-opacity="1"><g transform="translate(30.041579, 30.682036)"><g><path d="M 1.6875 0.0664062 L 2.179688 0.0898438 C 2.203125 0.0898438 2.226562 0.0859375 2.25 0.0625 C 2.269531 0.046875 2.28125 0.0234375 2.28125 -0.00390625 L 2.296875 -0.386719 L 2.316406 -0.835938 C 2.320312 -0.988281 2.328125 -1.136719 2.332031 -1.273438 C 2.339844 -1.410156 2.347656 -1.523438 2.351562 -1.617188 C 2.355469 -1.640625 2.34375 -1.660156 2.328125 -1.683594 C 2.304688 -1.703125 2.28125 -1.714844 2.261719 -1.714844 L 1.804688 -1.734375 C 1.734375 -1.738281 1.707031 -1.703125 1.703125 -1.640625 C 1.703125 -1.625 1.703125 -1.613281 1.707031 -1.609375 L 1.765625 -1.433594 C 1.761719 -1.429688 1.769531 -1.417969 1.769531 -1.40625 L 1.734375 -0.601562 C 1.734375 -0.574219 1.722656 -0.550781 1.703125 -0.535156 C 1.679688 -0.515625 1.65625 -0.507812 1.636719 -0.511719 L 1.625 -0.511719 C 1.503906 -0.527344 1.390625 -0.578125 1.292969 -0.65625 C 1.195312 -0.734375 1.105469 -0.832031 1.03125 -0.949219 C 0.957031 -1.066406 0.90625 -1.203125 0.863281 -1.351562 C 0.824219 -1.5 0.808594 -1.65625 0.816406 -1.820312 C 0.824219 -1.992188 0.851562 -2.15625 0.910156 -2.3125 C 0.960938 -2.464844 1.035156 -2.597656 1.125 -2.710938 C 1.214844 -2.820312 1.320312 -2.914062 1.4375 -2.976562 C 1.554688 -3.039062 1.683594 -3.070312 1.8125 -3.0625 C 1.886719 -3.0625 1.953125 -3.046875 2.023438 -3.019531 C 2.082031 -2.996094 2.144531 -2.964844 2.207031 -2.929688 C 2.21875 -2.917969 2.234375 -2.910156 2.246094 -2.898438 C 2.257812 -2.886719 2.277344 -2.878906 2.300781 -2.878906 C 2.324219 -2.878906 2.347656 -2.882812 2.371094 -2.898438 C 2.386719 -2.914062 2.402344 -2.9375 2.402344 -2.972656 L 2.421875 -3.457031 C 2.421875 -3.484375 2.414062 -3.507812 2.394531 -3.523438 C 2.375 -3.542969 2.351562 -3.554688 2.328125 -3.554688 C 2.3125 -3.558594 2.300781 -3.550781 2.292969 -3.550781 C 2.265625 -3.542969 2.25 -3.542969 2.238281 -3.546875 C 2.101562 -3.601562 1.972656 -3.628906 1.835938 -3.632812 C 1.621094 -3.640625 1.417969 -3.597656 1.230469 -3.507812 C 1.046875 -3.421875 0.878906 -3.296875 0.738281 -3.128906 C 0.59375 -2.964844 0.476562 -2.777344 0.390625 -2.558594 C 0.300781 -2.332031 0.257812 -2.09375 0.246094 -1.84375 C 0.234375 -1.585938 0.261719 -1.347656 0.332031 -1.121094 C 0.402344 -0.890625 0.5 -0.691406 0.632812 -0.515625 C 0.761719 -0.339844 0.914062 -0.203125 1.09375 -0.0976562 C 1.273438 0.0078125 1.46875 0.0585938 1.6875 0.0664062 Z M 1.6875 0.0664062 "/></g></g></g><g fill="#ffadad" fill-opacity="1"><g transform="translate(32.59955, 30.773923)"><g/></g></g><g fill="#ffadad" fill-opacity="1"><g transform="translate(34.412236, 30.764218)"><g><path d="M 0.359375 -0.0273438 L 0.359375 -0.0195312 L 2.15625 -0.125 C 2.179688 -0.125 2.203125 -0.132812 2.222656 -0.15625 C 2.238281 -0.175781 2.25 -0.199219 2.246094 -0.226562 L 2.222656 -0.683594 C 2.21875 -0.738281 2.183594 -0.773438 2.125 -0.769531 C 2.109375 -0.765625 2.097656 -0.761719 2.089844 -0.761719 L 1.917969 -0.6875 C 1.90625 -0.679688 1.894531 -0.679688 1.882812 -0.679688 L 0.992188 -0.628906 C 0.957031 -0.625 0.933594 -0.628906 0.914062 -0.652344 C 0.898438 -0.667969 0.890625 -0.691406 0.890625 -0.71875 L 0.734375 -3.421875 C 0.730469 -3.433594 0.730469 -3.4375 0.738281 -3.449219 L 0.789062 -3.625 C 0.800781 -3.65625 0.792969 -3.683594 0.765625 -3.710938 C 0.742188 -3.738281 0.71875 -3.753906 0.691406 -3.75 L 0.167969 -3.722656 C 0.132812 -3.71875 0.109375 -3.707031 0.09375 -3.6875 C 0.078125 -3.664062 0.0742188 -3.640625 0.0742188 -3.617188 C 0.078125 -3.601562 0.078125 -3.589844 0.0820312 -3.585938 L 0.15625 -3.417969 C 0.15625 -3.40625 0.15625 -3.402344 0.15625 -3.402344 C 0.15625 -3.394531 0.164062 -3.390625 0.164062 -3.390625 L 0.339844 -0.351562 C 0.339844 -0.34375 0.335938 -0.339844 0.335938 -0.339844 C 0.335938 -0.332031 0.335938 -0.328125 0.335938 -0.320312 L 0.28125 -0.148438 C 0.273438 -0.113281 0.28125 -0.0898438 0.292969 -0.0664062 C 0.304688 -0.046875 0.324219 -0.03125 0.359375 -0.0273438 Z M 0.359375 -0.0273438 "/></g></g></g><g fill="#ffadad" fill-opacity="1"><g transform="translate(36.96387, 30.616888)"><g><path d="M 1.242188 -0.941406 L 2.222656 -1.058594 C 2.246094 -1.058594 2.265625 -1.066406 2.285156 -1.09375 C 2.300781 -1.113281 2.308594 -1.136719 2.304688 -1.164062 L 2.253906 -1.617188 C 2.246094 -1.675781 2.207031 -1.703125 2.152344 -1.699219 C 2.132812 -1.695312 2.125 -1.6875 2.117188 -1.6875 L 1.949219 -1.605469 C 1.9375 -1.597656 1.929688 -1.597656 1.917969 -1.59375 L 0.859375 -1.46875 C 0.824219 -1.464844 0.800781 -1.46875 0.78125 -1.488281 C 0.761719 -1.503906 0.753906 -1.523438 0.75 -1.554688 L 0.671875 -2.203125 C 0.671875 -2.226562 0.671875 -2.246094 0.6875 -2.261719 C 0.703125 -2.28125 0.726562 -2.296875 0.746094 -2.300781 L 1.445312 -2.382812 C 1.453125 -2.382812 1.46875 -2.378906 1.476562 -2.378906 L 1.65625 -2.339844 C 1.683594 -2.332031 1.714844 -2.332031 1.738281 -2.359375 C 1.757812 -2.378906 1.773438 -2.410156 1.769531 -2.445312 L 1.707031 -2.964844 C 1.699219 -3.027344 1.660156 -3.058594 1.605469 -3.050781 C 1.589844 -3.046875 1.578125 -3.042969 1.570312 -3.039062 L 1.410156 -2.957031 C 1.398438 -2.949219 1.386719 -2.949219 1.375 -2.949219 L 0.679688 -2.863281 C 0.65625 -2.863281 0.632812 -2.867188 0.613281 -2.878906 C 0.597656 -2.894531 0.585938 -2.917969 0.585938 -2.941406 L 0.5625 -3.125 C 0.558594 -3.148438 0.5625 -3.171875 0.578125 -3.195312 C 0.59375 -3.214844 0.613281 -3.230469 0.648438 -3.234375 L 1.707031 -3.359375 C 1.71875 -3.363281 1.730469 -3.359375 1.742188 -3.359375 L 1.921875 -3.316406 C 1.953125 -3.308594 1.980469 -3.3125 2.007812 -3.339844 C 2.027344 -3.359375 2.042969 -3.382812 2.039062 -3.417969 L 1.984375 -3.871094 C 1.980469 -3.894531 1.96875 -3.914062 1.949219 -3.933594 C 1.921875 -3.949219 1.898438 -3.957031 1.875 -3.953125 L -0.0820312 -3.722656 L -0.0820312 -3.714844 C -0.132812 -3.699219 -0.148438 -3.660156 -0.144531 -3.617188 C -0.140625 -3.597656 -0.140625 -3.589844 -0.132812 -3.582031 L -0.0507812 -3.421875 C -0.0507812 -3.410156 -0.0507812 -3.402344 -0.0507812 -3.402344 C -0.0507812 -3.398438 -0.0429688 -3.394531 -0.0429688 -3.394531 L 0.222656 -1.152344 C 0.226562 -1.144531 0.21875 -1.140625 0.21875 -1.140625 C 0.21875 -1.132812 0.222656 -1.128906 0.222656 -1.121094 L 0.179688 -0.945312 C 0.171875 -0.910156 0.179688 -0.886719 0.195312 -0.867188 C 0.210938 -0.847656 0.226562 -0.832031 0.261719 -0.828125 L 0.347656 -0.832031 C 0.40625 -0.839844 0.476562 -0.847656 0.570312 -0.859375 L 0.886719 -0.898438 Z M 0.378906 -0.046875 L 2.316406 -0.277344 C 2.335938 -0.277344 2.359375 -0.289062 2.378906 -0.3125 C 2.394531 -0.332031 2.402344 -0.355469 2.398438 -0.382812 L 2.371094 -0.632812 C 2.367188 -0.65625 2.351562 -0.675781 2.332031 -0.699219 C 2.308594 -0.710938 2.285156 -0.71875 2.261719 -0.71875 L 0.328125 -0.488281 C 0.296875 -0.484375 0.277344 -0.46875 0.261719 -0.449219 C 0.242188 -0.425781 0.238281 -0.402344 0.242188 -0.378906 L 0.273438 -0.128906 C 0.273438 -0.101562 0.285156 -0.078125 0.308594 -0.0664062 C 0.328125 -0.0429688 0.351562 -0.0429688 0.378906 -0.046875 Z M 0.378906 -0.046875 "/></g></g></g><g fill="#ffadad" fill-opacity="1"><g transform="translate(39.784415, 30.272679)"><g><path d="M 0.0429688 -0.808594 L 0.558594 -0.902344 C 0.589844 -0.90625 0.613281 -0.921875 0.636719 -0.957031 C 0.660156 -0.984375 0.667969 -1.011719 0.660156 -1.046875 L 0.613281 -1.210938 C 0.613281 -1.222656 0.609375 -1.234375 0.613281 -1.246094 C 0.613281 -1.246094 0.613281 -1.277344 0.617188 -1.328125 C 0.617188 -1.382812 0.628906 -1.453125 0.636719 -1.539062 C 0.636719 -1.5625 0.644531 -1.582031 0.664062 -1.597656 C 0.679688 -1.613281 0.699219 -1.628906 0.722656 -1.632812 L 0.734375 -1.632812 L 1.246094 -1.628906 C 1.28125 -1.625 1.3125 -1.605469 1.328125 -1.574219 L 1.417969 -1.386719 C 1.417969 -1.375 1.417969 -1.371094 1.417969 -1.371094 C 1.417969 -1.371094 1.421875 -1.363281 1.421875 -1.359375 L 1.441406 -1.1875 C 1.441406 -1.15625 1.457031 -1.128906 1.488281 -1.109375 C 1.515625 -1.085938 1.550781 -1.082031 1.585938 -1.089844 L 2.097656 -1.179688 C 2.140625 -1.1875 2.164062 -1.214844 2.15625 -1.261719 C 2.152344 -1.277344 2.144531 -1.292969 2.128906 -1.316406 L 1.992188 -1.464844 C 1.980469 -1.472656 1.976562 -1.484375 1.976562 -1.496094 L 1.007812 -3.542969 C 1 -3.554688 0.988281 -3.570312 0.988281 -3.582031 C 0.984375 -3.589844 0.984375 -3.601562 0.980469 -3.621094 C 0.976562 -3.652344 0.972656 -3.699219 0.988281 -3.75 L 1.003906 -3.816406 C 1.007812 -3.84375 1 -3.871094 0.972656 -3.894531 C 0.945312 -3.921875 0.90625 -3.929688 0.867188 -3.921875 L 0.226562 -3.808594 C 0.195312 -3.800781 0.167969 -3.785156 0.148438 -3.765625 C 0.132812 -3.738281 0.125 -3.714844 0.128906 -3.691406 C 0.132812 -3.671875 0.132812 -3.664062 0.140625 -3.65625 L 0.183594 -3.601562 C 0.203125 -3.570312 0.21875 -3.535156 0.226562 -3.488281 C 0.234375 -3.449219 0.234375 -3.421875 0.234375 -3.402344 C 0.195312 -2.96875 0.164062 -2.609375 0.140625 -2.335938 C 0.125 -2.0625 0.105469 -1.84375 0.09375 -1.691406 C 0.0742188 -1.53125 0.0664062 -1.417969 0.0585938 -1.355469 C 0.0546875 -1.285156 0.0507812 -1.242188 0.0507812 -1.21875 C 0.046875 -1.195312 0.0507812 -1.183594 0.0507812 -1.183594 C 0.0507812 -1.183594 0.046875 -1.167969 0.046875 -1.144531 C 0.046875 -1.132812 0.046875 -1.121094 0.0429688 -1.109375 L -0.0351562 -0.921875 C -0.0429688 -0.894531 -0.0429688 -0.878906 -0.0390625 -0.863281 C -0.03125 -0.816406 -0.0078125 -0.796875 0.0429688 -0.808594 Z M 0.898438 -2.203125 L 0.878906 -2.199219 L 0.792969 -2.199219 C 0.734375 -2.203125 0.707031 -2.226562 0.699219 -2.277344 C 0.695312 -2.289062 0.695312 -2.292969 0.699219 -2.304688 C 0.703125 -2.398438 0.714844 -2.480469 0.71875 -2.546875 C 0.71875 -2.609375 0.722656 -2.644531 0.722656 -2.652344 C 0.726562 -2.667969 0.738281 -2.683594 0.761719 -2.6875 C 0.785156 -2.691406 0.804688 -2.683594 0.8125 -2.667969 L 0.964844 -2.335938 C 0.984375 -2.304688 0.980469 -2.277344 0.964844 -2.25 C 0.945312 -2.222656 0.925781 -2.207031 0.898438 -2.203125 Z M 0.207031 -0.0390625 L 2.214844 -0.402344 C 2.242188 -0.40625 2.265625 -0.417969 2.277344 -0.441406 C 2.289062 -0.464844 2.296875 -0.488281 2.292969 -0.515625 L 2.25 -0.761719 C 2.242188 -0.785156 2.230469 -0.804688 2.207031 -0.824219 C 2.1875 -0.839844 2.164062 -0.84375 2.136719 -0.839844 L 0.128906 -0.476562 C 0.101562 -0.46875 0.078125 -0.453125 0.0664062 -0.433594 C 0.046875 -0.410156 0.046875 -0.386719 0.0507812 -0.363281 L 0.09375 -0.117188 C 0.101562 -0.0859375 0.109375 -0.0664062 0.136719 -0.0546875 C 0.15625 -0.0351562 0.179688 -0.03125 0.207031 -0.0390625 Z M 0.207031 -0.0390625 "/></g></g></g><g fill="#ffadad" fill-opacity="1"><g transform="translate(42.33601, 29.809653)"><g><path d="M 2.148438 0.132812 L 2.648438 0.0078125 C 2.6875 0 2.707031 -0.0234375 2.695312 -0.0625 C 2.691406 -0.0898438 2.675781 -0.109375 2.652344 -0.128906 L 2.472656 -0.257812 L 2.441406 -0.285156 L 2.058594 -0.773438 C 1.949219 -0.910156 1.835938 -1.046875 1.71875 -1.195312 C 1.601562 -1.335938 1.5 -1.457031 1.421875 -1.566406 C 1.382812 -1.609375 1.382812 -1.652344 1.425781 -1.691406 C 1.5 -1.769531 1.558594 -1.863281 1.601562 -1.96875 C 1.648438 -2.074219 1.679688 -2.175781 1.699219 -2.289062 C 1.71875 -2.398438 1.734375 -2.507812 1.730469 -2.613281 C 1.730469 -2.71875 1.71875 -2.808594 1.699219 -2.890625 C 1.660156 -3.046875 1.589844 -3.191406 1.496094 -3.335938 C 1.402344 -3.476562 1.28125 -3.585938 1.140625 -3.679688 C 1 -3.769531 0.832031 -3.828125 0.644531 -3.859375 C 0.453125 -3.886719 0.246094 -3.878906 0.0195312 -3.820312 L -0.519531 -3.6875 C -0.546875 -3.679688 -0.566406 -3.664062 -0.578125 -3.644531 C -0.59375 -3.617188 -0.59375 -3.59375 -0.585938 -3.566406 C -0.585938 -3.554688 -0.582031 -3.542969 -0.574219 -3.539062 L -0.472656 -3.386719 C -0.472656 -3.378906 -0.464844 -3.371094 -0.460938 -3.363281 L 0.269531 -0.40625 C 0.273438 -0.394531 0.269531 -0.382812 0.269531 -0.378906 L 0.25 -0.195312 C 0.246094 -0.160156 0.253906 -0.132812 0.285156 -0.109375 C 0.3125 -0.0898438 0.335938 -0.0820312 0.371094 -0.0898438 L 0.878906 -0.21875 C 0.90625 -0.222656 0.929688 -0.234375 0.9375 -0.261719 C 0.953125 -0.28125 0.957031 -0.308594 0.949219 -0.335938 C 0.949219 -0.347656 0.941406 -0.355469 0.9375 -0.367188 L 0.835938 -0.519531 C 0.832031 -0.523438 0.828125 -0.527344 0.824219 -0.53125 C 0.824219 -0.53125 0.824219 -0.539062 0.824219 -0.542969 L 0.660156 -1.195312 C 0.65625 -1.21875 0.65625 -1.242188 0.671875 -1.269531 C 0.683594 -1.289062 0.703125 -1.308594 0.730469 -1.3125 C 0.75 -1.316406 0.765625 -1.324219 0.789062 -1.328125 C 0.808594 -1.332031 0.824219 -1.34375 0.847656 -1.347656 C 0.890625 -1.363281 0.921875 -1.355469 0.953125 -1.320312 L 1.890625 -0.148438 C 1.898438 -0.132812 1.90625 -0.125 1.90625 -0.121094 L 1.964844 0.0429688 C 1.972656 0.0742188 1.996094 0.0976562 2.039062 0.117188 C 2.078125 0.136719 2.113281 0.140625 2.148438 0.132812 Z M 0.601562 -1.867188 C 0.566406 -1.859375 0.542969 -1.859375 0.523438 -1.875 C 0.496094 -1.882812 0.484375 -1.90625 0.476562 -1.9375 L 0.171875 -3.171875 C 0.167969 -3.195312 0.167969 -3.21875 0.183594 -3.246094 C 0.195312 -3.265625 0.214844 -3.28125 0.25 -3.289062 C 0.375 -3.308594 0.492188 -3.308594 0.597656 -3.28125 C 0.699219 -3.25 0.792969 -3.207031 0.867188 -3.148438 C 0.9375 -3.089844 1 -3.03125 1.046875 -2.960938 C 1.09375 -2.890625 1.128906 -2.820312 1.140625 -2.765625 C 1.15625 -2.707031 1.160156 -2.628906 1.15625 -2.546875 C 1.148438 -2.457031 1.125 -2.367188 1.085938 -2.28125 C 1.050781 -2.191406 0.988281 -2.109375 0.914062 -2.035156 C 0.835938 -1.957031 0.734375 -1.902344 0.601562 -1.867188 Z M 0.601562 -1.867188 "/></g></g></g><g fill="#ffadad" fill-opacity="1"><g transform="translate(45.1967, 29.100263)"><g><path d="M 0.363281 -0.117188 L 0.863281 -0.277344 C 0.882812 -0.285156 0.90625 -0.296875 0.917969 -0.324219 C 0.929688 -0.347656 0.933594 -0.371094 0.925781 -0.402344 C 0.921875 -0.414062 0.914062 -0.417969 0.910156 -0.429688 L 0.796875 -0.574219 C 0.789062 -0.578125 0.789062 -0.585938 0.785156 -0.597656 L 0.207031 -2.394531 C 0.199219 -2.417969 0.207031 -2.4375 0.234375 -2.445312 C 0.242188 -2.449219 0.265625 -2.441406 0.277344 -2.4375 L 1.820312 -0.777344 L 1.820312 -0.722656 C 1.820312 -0.6875 1.828125 -0.660156 1.859375 -0.636719 C 1.886719 -0.617188 1.914062 -0.613281 1.949219 -0.625 L 2.441406 -0.785156 C 2.46875 -0.792969 2.488281 -0.804688 2.5 -0.832031 C 2.511719 -0.851562 2.515625 -0.878906 2.503906 -0.90625 C 2.5 -0.917969 2.492188 -0.925781 2.488281 -0.9375 L 2.378906 -1.078125 C 2.375 -1.085938 2.367188 -1.089844 2.367188 -1.09375 C 2.367188 -1.09375 2.363281 -1.101562 2.363281 -1.105469 L 1.046875 -5.214844 C 1.046875 -5.214844 1.042969 -5.21875 1.042969 -5.226562 C 1.042969 -5.226562 1.046875 -5.230469 1.042969 -5.242188 L 1.050781 -5.425781 C 1.050781 -5.457031 1.039062 -5.480469 1.011719 -5.503906 C 0.980469 -5.523438 0.953125 -5.53125 0.921875 -5.523438 L 0.429688 -5.363281 C 0.394531 -5.351562 0.378906 -5.335938 0.367188 -5.3125 C 0.355469 -5.285156 0.359375 -5.261719 0.367188 -5.242188 C 0.371094 -5.226562 0.375 -5.214844 0.382812 -5.210938 L 0.488281 -5.066406 C 0.492188 -5.054688 0.5 -5.050781 0.503906 -5.039062 L 1.46875 -2.03125 C 1.476562 -2.003906 1.460938 -1.988281 1.441406 -1.984375 C 1.425781 -1.976562 1.414062 -1.980469 1.394531 -1.992188 C 1.195312 -2.203125 1.039062 -2.375 0.921875 -2.503906 C 0.796875 -2.632812 0.703125 -2.738281 0.636719 -2.8125 C 0.5625 -2.886719 0.519531 -2.9375 0.488281 -2.96875 L 0.421875 -3.039062 C 0.402344 -3.050781 0.394531 -3.066406 0.382812 -3.078125 C 0.367188 -3.09375 0.34375 -3.121094 0.308594 -3.15625 C 0.273438 -3.195312 0.21875 -3.25 0.148438 -3.320312 C 0.078125 -3.394531 -0.0195312 -3.507812 -0.148438 -3.652344 L -0.140625 -3.707031 C -0.140625 -3.738281 -0.152344 -3.761719 -0.183594 -3.785156 C -0.214844 -3.804688 -0.242188 -3.8125 -0.269531 -3.804688 L -0.769531 -3.644531 C -0.800781 -3.632812 -0.820312 -3.617188 -0.828125 -3.59375 C -0.839844 -3.566406 -0.835938 -3.542969 -0.832031 -3.523438 C -0.824219 -3.507812 -0.820312 -3.496094 -0.816406 -3.492188 L -0.703125 -3.347656 C -0.699219 -3.335938 -0.699219 -3.332031 -0.699219 -3.332031 C -0.695312 -3.328125 -0.6875 -3.324219 -0.6875 -3.324219 L 0.242188 -0.425781 C 0.242188 -0.417969 0.238281 -0.410156 0.238281 -0.410156 C 0.242188 -0.40625 0.242188 -0.402344 0.246094 -0.394531 L 0.238281 -0.214844 C 0.238281 -0.175781 0.246094 -0.152344 0.277344 -0.128906 C 0.300781 -0.109375 0.332031 -0.105469 0.363281 -0.117188 Z M 0.363281 -0.117188 "/></g></g></g><g fill="#ffadad" fill-opacity="1"><g transform="translate(48.133781, 28.148715)"><g><path d="M 0.960938 -1.226562 L 1.878906 -1.589844 C 1.898438 -1.597656 1.917969 -1.613281 1.929688 -1.640625 C 1.941406 -1.664062 1.941406 -1.691406 1.929688 -1.714844 L 1.761719 -2.140625 C 1.742188 -2.191406 1.699219 -2.210938 1.644531 -2.191406 C 1.628906 -2.183594 1.621094 -2.175781 1.617188 -2.171875 L 1.472656 -2.050781 C 1.464844 -2.039062 1.457031 -2.035156 1.445312 -2.03125 L 0.453125 -1.640625 C 0.421875 -1.625 0.398438 -1.625 0.375 -1.636719 C 0.351562 -1.648438 0.339844 -1.667969 0.328125 -1.695312 L 0.0859375 -2.304688 C 0.078125 -2.324219 0.078125 -2.34375 0.0859375 -2.363281 C 0.0976562 -2.386719 0.113281 -2.40625 0.132812 -2.414062 L 0.785156 -2.671875 C 0.796875 -2.675781 0.808594 -2.675781 0.820312 -2.679688 L 1.003906 -2.683594 C 1.03125 -2.683594 1.058594 -2.695312 1.078125 -2.726562 C 1.09375 -2.75 1.097656 -2.785156 1.085938 -2.816406 L 0.890625 -3.304688 C 0.867188 -3.359375 0.824219 -3.378906 0.769531 -3.359375 C 0.753906 -3.351562 0.746094 -3.34375 0.742188 -3.339844 L 0.605469 -3.21875 C 0.597656 -3.210938 0.585938 -3.207031 0.574219 -3.203125 L -0.0742188 -2.945312 C -0.0976562 -2.933594 -0.121094 -2.933594 -0.140625 -2.941406 C -0.164062 -2.953125 -0.179688 -2.96875 -0.1875 -2.992188 L -0.257812 -3.167969 C -0.265625 -3.1875 -0.265625 -3.210938 -0.261719 -3.238281 C -0.25 -3.261719 -0.234375 -3.28125 -0.203125 -3.292969 L 0.789062 -3.683594 C 0.800781 -3.6875 0.8125 -3.6875 0.824219 -3.691406 L 1.011719 -3.699219 C 1.042969 -3.699219 1.066406 -3.710938 1.085938 -3.742188 C 1.101562 -3.765625 1.109375 -3.792969 1.09375 -3.824219 L 0.925781 -4.25 C 0.917969 -4.269531 0.898438 -4.285156 0.875 -4.300781 C 0.847656 -4.308594 0.824219 -4.3125 0.800781 -4.304688 L -1.03125 -3.578125 L -1.03125 -3.570312 C -1.074219 -3.542969 -1.082031 -3.5 -1.066406 -3.460938 C -1.058594 -3.441406 -1.054688 -3.433594 -1.046875 -3.429688 L -0.925781 -3.292969 C -0.921875 -3.28125 -0.917969 -3.277344 -0.917969 -3.277344 C -0.917969 -3.273438 -0.910156 -3.269531 -0.910156 -3.269531 L -0.078125 -1.171875 C -0.0742188 -1.164062 -0.078125 -1.15625 -0.078125 -1.15625 C -0.078125 -1.152344 -0.0742188 -1.148438 -0.0742188 -1.140625 L -0.0664062 -0.960938 C -0.0664062 -0.925781 -0.0507812 -0.90625 -0.0351562 -0.886719 C -0.015625 -0.871094 0.0078125 -0.863281 0.0429688 -0.867188 L 0.125 -0.894531 C 0.175781 -0.917969 0.246094 -0.945312 0.328125 -0.976562 L 0.625 -1.09375 Z M 0.355469 -0.140625 L 2.167969 -0.859375 C 2.1875 -0.867188 2.207031 -0.882812 2.21875 -0.910156 C 2.230469 -0.933594 2.230469 -0.957031 2.222656 -0.984375 L 2.128906 -1.21875 C 2.121094 -1.238281 2.101562 -1.257812 2.078125 -1.269531 C 2.050781 -1.277344 2.023438 -1.28125 2.003906 -1.273438 L 0.191406 -0.554688 C 0.164062 -0.542969 0.148438 -0.523438 0.136719 -0.503906 C 0.125 -0.472656 0.128906 -0.449219 0.136719 -0.429688 L 0.230469 -0.195312 C 0.238281 -0.167969 0.253906 -0.148438 0.28125 -0.140625 C 0.304688 -0.128906 0.328125 -0.128906 0.355469 -0.140625 Z M 0.355469 -0.140625 "/></g></g></g><g fill="#ffadad" fill-opacity="1"><g transform="translate(50.782287, 27.095482)"><g><path d="M 2.128906 -0.296875 L 2.597656 -0.519531 C 2.632812 -0.535156 2.648438 -0.5625 2.632812 -0.597656 C 2.617188 -0.625 2.597656 -0.640625 2.574219 -0.652344 L 2.371094 -0.746094 L 2.335938 -0.765625 L 1.863281 -1.167969 C 1.726562 -1.28125 1.59375 -1.390625 1.445312 -1.511719 C 1.304688 -1.628906 1.179688 -1.726562 1.082031 -1.816406 C 1.03125 -1.851562 1.027344 -1.894531 1.058594 -1.941406 C 1.117188 -2.03125 1.15625 -2.136719 1.179688 -2.25 C 1.203125 -2.359375 1.214844 -2.46875 1.210938 -2.582031 C 1.207031 -2.691406 1.199219 -2.800781 1.175781 -2.90625 C 1.152344 -3.007812 1.125 -3.09375 1.089844 -3.171875 C 1.019531 -3.316406 0.921875 -3.445312 0.800781 -3.566406 C 0.679688 -3.683594 0.539062 -3.769531 0.382812 -3.835938 C 0.230469 -3.894531 0.0546875 -3.917969 -0.136719 -3.910156 C -0.328125 -3.898438 -0.53125 -3.847656 -0.742188 -3.75 L -1.242188 -3.511719 C -1.269531 -3.5 -1.285156 -3.480469 -1.292969 -3.457031 C -1.300781 -3.425781 -1.296875 -3.402344 -1.285156 -3.378906 C -1.28125 -3.367188 -1.277344 -3.355469 -1.269531 -3.355469 L -1.136719 -3.226562 C -1.132812 -3.214844 -1.125 -3.214844 -1.121094 -3.203125 L 0.183594 -0.453125 C 0.1875 -0.441406 0.1875 -0.429688 0.191406 -0.425781 L 0.207031 -0.242188 C 0.210938 -0.207031 0.222656 -0.179688 0.257812 -0.164062 C 0.289062 -0.148438 0.3125 -0.148438 0.34375 -0.164062 L 0.820312 -0.386719 C 0.84375 -0.402344 0.863281 -0.414062 0.867188 -0.441406 C 0.875 -0.464844 0.878906 -0.492188 0.863281 -0.515625 C 0.859375 -0.527344 0.851562 -0.535156 0.84375 -0.546875 L 0.714844 -0.671875 C 0.710938 -0.679688 0.707031 -0.679688 0.703125 -0.6875 C 0.703125 -0.6875 0.699219 -0.691406 0.699219 -0.695312 L 0.410156 -1.304688 C 0.398438 -1.324219 0.394531 -1.347656 0.40625 -1.378906 C 0.414062 -1.402344 0.429688 -1.421875 0.457031 -1.433594 C 0.472656 -1.441406 0.488281 -1.449219 0.507812 -1.457031 C 0.527344 -1.46875 0.539062 -1.480469 0.5625 -1.488281 C 0.601562 -1.515625 0.632812 -1.511719 0.671875 -1.484375 L 1.820312 -0.523438 C 1.832031 -0.511719 1.84375 -0.503906 1.847656 -0.496094 L 1.933594 -0.351562 C 1.949219 -0.320312 1.976562 -0.300781 2.019531 -0.289062 C 2.0625 -0.277344 2.097656 -0.28125 2.128906 -0.296875 Z M 0.214844 -1.949219 C 0.1875 -1.9375 0.164062 -1.933594 0.140625 -1.941406 C 0.113281 -1.945312 0.0976562 -1.964844 0.0820312 -1.996094 L -0.460938 -3.144531 C -0.472656 -3.164062 -0.476562 -3.1875 -0.464844 -3.21875 C -0.457031 -3.238281 -0.441406 -3.261719 -0.410156 -3.273438 C -0.292969 -3.316406 -0.175781 -3.339844 -0.0664062 -3.335938 C 0.0390625 -3.324219 0.136719 -3.300781 0.222656 -3.257812 C 0.304688 -3.214844 0.378906 -3.167969 0.4375 -3.109375 C 0.496094 -3.050781 0.542969 -2.988281 0.570312 -2.9375 C 0.59375 -2.882812 0.613281 -2.808594 0.625 -2.726562 C 0.636719 -2.636719 0.628906 -2.542969 0.609375 -2.453125 C 0.59375 -2.355469 0.546875 -2.265625 0.488281 -2.175781 C 0.429688 -2.085938 0.339844 -2.007812 0.214844 -1.949219 Z M 0.214844 -1.949219 "/></g></g></g></svg>